<svg data-v-423bf9ae="" xmlns="http://www.w3.org/2000/svg" viewBox="0 0 504 99" class="iconLeftSlogan"><!----><!----><!----><g data-v-423bf9ae="" id="1ea812ad-e804-4f42-8487-133fe8afaa0a" fill="black" transform="matrix(5.612721889848748,0,0,5.612721889848748,99.48186951661222,-16.557529604270663)"><path d="M8.06 8.47L8.06 8.47Q8.92 8.71 9.41 9.33L9.41 9.33L9.41 9.33Q9.90 9.95 9.90 10.91L9.90 10.91L9.90 10.91Q9.90 12.18 8.94 12.87L8.94 12.87L8.94 12.87Q7.98 13.55 6.15 13.55L6.15 13.55L1.47 13.55L1.47 3.75L5.87 3.75L5.87 3.75Q7.55 3.75 8.46 4.42L8.46 4.42L8.46 4.42Q9.38 5.10 9.38 6.29L9.38 6.29L9.38 6.29Q9.38 7.06 9.02 7.62L9.02 7.62L9.02 7.62Q8.67 8.18 8.06 8.47L8.06 8.47ZM5.74 4.89L2.87 4.89L2.87 8.02L5.74 8.02L5.74 8.02Q6.82 8.02 7.40 7.62L7.40 7.62L7.40 7.62Q7.98 7.22 7.98 6.45L7.98 6.45L7.98 6.45Q7.98 5.68 7.40 5.29L7.40 5.29L7.40 5.29Q6.82 4.89 5.74 4.89L5.74 4.89ZM6.09 12.42L6.09 12.42Q7.28 12.42 7.88 12.03L7.88 12.03L7.88 12.03Q8.48 11.63 8.48 10.79L8.48 10.79L8.48 10.79Q8.48 9.16 6.09 9.16L6.09 9.16L2.87 9.16L2.87 12.42L6.09 12.42ZM13.16 7.38L13.16 7.38Q13.51 6.73 14.20 6.40L14.20 6.40L14.20 6.40Q14.88 6.06 15.86 6.06L15.86 6.06L15.86 7.36L15.86 7.36Q15.75 7.35 15.55 7.35L15.55 7.35L15.55 7.35Q14.46 7.35 13.84 8.00L13.84 8.00L13.84 8.00Q13.22 8.65 13.22 9.86L13.22 9.86L13.22 13.55L11.87 13.55L11.87 6.13L13.16 6.13L13.16 7.38ZM20.31 6.06L20.31 6.06Q21.85 6.06 22.67 6.82L22.67 6.82L22.67 6.82Q23.49 7.57 23.49 9.07L23.49 9.07L23.49 13.55L22.22 13.55L22.22 12.57L22.22 12.57Q21.88 13.09 21.26 13.36L21.26 13.36L21.26 13.36Q20.64 13.64 19.78 13.64L19.78 13.64L19.78 13.64Q18.54 13.64 17.79 13.03L17.79 13.03L17.79 13.03Q17.04 12.43 17.04 11.45L17.04 11.45L17.04 11.45Q17.04 10.47 17.75 9.88L17.75 9.88L17.75 9.88Q18.47 9.28 20.02 9.28L20.02 9.28L22.15 9.28L22.15 9.02L22.15 9.02Q22.15 8.15 21.64 7.69L21.64 7.69L21.64 7.69Q21.14 7.22 20.16 7.22L20.16 7.22L20.16 7.22Q19.50 7.22 18.87 7.44L18.87 7.44L18.87 7.44Q18.24 7.66 17.81 8.02L17.81 8.02L17.25 7.01L17.25 7.01Q17.82 6.55 18.62 6.31L18.62 6.31L18.62 6.31Q19.42 6.06 20.31 6.06L20.31 6.06ZM20.01 12.60L20.01 12.60Q20.78 12.60 21.34 12.26L21.34 12.26L21.34 12.26Q21.90 11.91 22.15 11.28L22.15 11.28L22.15 10.25L20.08 10.25L20.08 10.25Q18.37 10.25 18.37 11.40L18.37 11.40L18.37 11.40Q18.37 11.96 18.80 12.28L18.80 12.28L18.80 12.28Q19.24 12.60 20.01 12.60L20.01 12.60ZM29.95 6.06L29.95 6.06Q31.36 6.06 32.19 6.88L32.19 6.88L32.19 6.88Q33.03 7.70 33.03 9.28L33.03 9.28L33.03 13.55L31.68 13.55L31.68 9.44L31.68 9.44Q31.68 8.36 31.16 7.81L31.16 7.81L31.16 7.81Q30.65 7.27 29.68 7.27L29.68 7.27L29.68 7.27Q28.59 7.27 27.96 7.90L27.96 7.90L27.96 7.90Q27.33 8.54 27.33 9.73L27.33 9.73L27.33 13.55L25.98 13.55L25.98 6.13L27.27 6.13L27.27 7.25L27.27 7.25Q27.68 6.68 28.37 6.37L28.37 6.37L28.37 6.37Q29.06 6.06 29.95 6.06L29.95 6.06ZM41.17 3.16L42.52 3.16L42.52 13.55L41.23 13.55L41.23 12.38L41.23 12.38Q40.78 12.99 40.10 13.31L40.10 13.31L40.10 13.31Q39.41 13.64 38.58 13.64L38.58 13.64L38.58 13.64Q37.51 13.64 36.65 13.16L36.65 13.16L36.65 13.16Q35.80 12.68 35.31 11.82L35.31 11.82L35.31 11.82Q34.83 10.96 34.83 9.84L34.83 9.84L34.83 9.84Q34.83 8.72 35.31 7.87L35.31 7.87L35.31 7.87Q35.80 7.01 36.65 6.54L36.65 6.54L36.65 6.54Q37.51 6.06 38.58 6.06L38.58 6.06L38.58 6.06Q39.38 6.06 40.05 6.36L40.05 6.36L40.05 6.36Q40.73 6.66 41.17 7.25L41.17 7.25L41.17 3.16ZM38.70 12.46L38.70 12.46Q39.40 12.46 39.97 12.13L39.97 12.13L39.97 12.13Q40.54 11.80 40.87 11.21L40.87 11.21L40.87 11.21Q41.19 10.61 41.19 9.84L41.19 9.84L41.19 9.84Q41.19 9.07 40.87 8.48L40.87 8.48L40.87 8.48Q40.54 7.88 39.97 7.56L39.97 7.56L39.97 7.56Q39.40 7.24 38.70 7.24L38.70 7.24L38.70 7.24Q37.98 7.24 37.41 7.56L37.41 7.56L37.41 7.56Q36.85 7.88 36.52 8.48L36.52 8.48L36.52 8.48Q36.19 9.07 36.19 9.84L36.19 9.84L36.19 9.84Q36.19 10.61 36.52 11.21L36.52 11.21L36.52 11.21Q36.85 11.80 37.41 12.13L37.41 12.13L37.41 12.13Q37.98 12.46 38.70 12.46L38.70 12.46ZM45.07 13.55L45.07 6.13L46.41 6.13L46.41 13.55L45.07 13.55ZM45.74 4.70L45.74 4.70Q45.35 4.70 45.09 4.45L45.09 4.45L45.09 4.45Q44.83 4.20 44.83 3.84L44.83 3.84L44.83 3.84Q44.83 3.47 45.09 3.21L45.09 3.21L45.09 3.21Q45.35 2.95 45.74 2.95L45.74 2.95L45.74 2.95Q46.13 2.95 46.39 3.20L46.39 3.20L46.39 3.20Q46.65 3.44 46.65 3.81L46.65 3.81L46.65 3.81Q46.65 4.19 46.39 4.45L46.39 4.45L46.39 4.45Q46.13 4.70 45.74 4.70L45.74 4.70ZM51.10 13.64L51.10 13.64Q50.19 13.64 49.35 13.39L49.35 13.39L49.35 13.39Q48.51 13.15 48.03 12.77L48.03 12.77L48.59 11.70L48.59 11.70Q49.08 12.05 49.78 12.26L49.78 12.26L49.78 12.26Q50.48 12.47 51.20 12.47L51.20 12.47L51.20 12.47Q52.96 12.47 52.96 11.47L52.96 11.47L52.96 11.47Q52.96 11.13 52.72 10.93L52.72 10.93L52.72 10.93Q52.49 10.74 52.13 10.65L52.13 10.65L52.13 10.65Q51.77 10.56 51.11 10.44L51.11 10.44L51.11 10.44Q50.22 10.30 49.65 10.12L49.65 10.12L49.65 10.12Q49.08 9.94 48.68 9.51L48.68 9.51L48.68 9.51Q48.27 9.07 48.27 8.29L48.27 8.29L48.27 8.29Q48.27 7.28 49.11 6.67L49.11 6.67L49.11 6.67Q49.95 6.06 51.37 6.06L51.37 6.06L51.37 6.06Q52.11 6.06 52.85 6.24L52.85 6.24L52.85 6.24Q53.59 6.43 54.07 6.73L54.07 6.73L53.49 7.80L53.49 7.80Q52.58 7.21 51.35 7.21L51.35 7.21L51.35 7.21Q50.50 7.21 50.05 7.49L50.05 7.49L50.05 7.49Q49.60 7.77 49.60 8.23L49.60 8.23L49.60 8.23Q49.60 8.60 49.85 8.81L49.85 8.81L49.85 8.81Q50.11 9.02 50.48 9.11L50.48 9.11L50.48 9.11Q50.85 9.21 51.52 9.34L51.52 9.34L51.52 9.34Q52.42 9.49 52.97 9.67L52.97 9.67L52.97 9.67Q53.52 9.84 53.91 10.26L53.91 10.26L53.91 10.26Q54.31 10.68 54.31 11.44L54.31 11.44L54.31 11.44Q54.31 12.45 53.45 13.04L53.45 13.04L53.45 13.04Q52.58 13.64 51.10 13.64L51.10 13.64ZM59.74 12.15L60.16 13.12L60.16 13.12Q59.86 13.37 59.43 13.50L59.43 13.50L59.43 13.50Q59.00 13.64 58.53 13.64L58.53 13.64L58.53 13.64Q57.41 13.64 56.80 13.03L56.80 13.03L56.80 13.03Q56.18 12.43 56.18 11.31L56.18 11.31L56.18 7.24L54.92 7.24L54.92 6.13L56.18 6.13L56.18 4.51L57.53 4.51L57.53 6.13L59.65 6.13L59.65 7.24L57.53 7.24L57.53 11.26L57.53 11.26Q57.53 11.86 57.83 12.18L57.83 12.18L57.83 12.18Q58.13 12.50 58.69 12.50L58.69 12.50L58.69 12.50Q59.30 12.50 59.74 12.15L59.74 12.15ZM61.78 13.55L61.78 6.13L63.13 6.13L63.13 13.55L61.78 13.55ZM62.45 4.70L62.45 4.70Q62.06 4.70 61.80 4.45L61.80 4.45L61.80 4.45Q61.54 4.20 61.54 3.84L61.54 3.84L61.54 3.84Q61.54 3.47 61.80 3.21L61.80 3.21L61.80 3.21Q62.06 2.95 62.45 2.95L62.45 2.95L62.45 2.95Q62.85 2.95 63.11 3.20L63.11 3.20L63.11 3.20Q63.36 3.44 63.36 3.81L63.36 3.81L63.36 3.81Q63.36 4.19 63.11 4.45L63.11 4.45L63.11 4.45Q62.85 4.70 62.45 4.70L62.45 4.70ZM68.92 13.64L68.92 13.64Q67.79 13.64 66.90 13.15L66.90 13.15L66.90 13.15Q66.01 12.66 65.51 11.79L65.51 11.79L65.51 11.79Q65.00 10.93 65.00 9.84L65.00 9.84L65.00 9.84Q65.00 8.75 65.51 7.89L65.51 7.89L65.51 7.89Q66.01 7.03 66.90 6.54L66.90 6.54L66.90 6.54Q67.79 6.06 68.92 6.06L68.92 6.06L68.92 6.06Q69.93 6.06 70.72 6.47L70.72 6.47L70.72 6.47Q71.51 6.87 71.95 7.64L71.95 7.64L70.92 8.30L70.92 8.30Q70.57 7.77 70.06 7.50L70.06 7.50L70.06 7.50Q69.54 7.24 68.91 7.24L68.91 7.24L68.91 7.24Q68.18 7.24 67.60 7.56L67.60 7.56L67.60 7.56Q67.02 7.88 66.69 8.48L66.69 8.48L66.69 8.48Q66.36 9.07 66.36 9.84L66.36 9.84L66.36 9.84Q66.36 10.63 66.69 11.22L66.69 11.22L66.69 11.22Q67.02 11.82 67.60 12.14L67.60 12.14L67.60 12.14Q68.18 12.46 68.91 12.46L68.91 12.46L68.91 12.46Q69.54 12.46 70.06 12.19L70.06 12.19L70.06 12.19Q70.57 11.93 70.92 11.40L70.92 11.40L71.95 12.04L71.95 12.04Q71.51 12.81 70.72 13.22L70.72 13.22L70.72 13.22Q69.93 13.64 68.92 13.64L68.92 13.64Z"></path></g><!----><g data-v-423bf9ae="" id="2b0190fd-a08b-40dc-8939-659473ac9cf0" transform="matrix(1.0444302029079862,0,0,1.0444302029079862,-8.244640295050992,-2.197972103039021)" stroke="none" fill="black"><path clip-rule="evenodd" d="M52.105 76.564c-5.36 0-9.7 4.32-9.7 9.65s4.22 10.27 9.57 10.27c5.36 0 9.819-4.939 9.819-10.27s-4.339-9.65-9.689-9.65zm-32.04 0c-5.36 0-9.7 4.32-9.7 9.65s4.22 10.27 9.58 10.27c5.35 0 9.82-4.939 9.82-10.27s-4.349-9.65-9.7-9.65zm66.73-57.97H68.306l-9.49 20.33-48.7.1v19.78c0 8.63 5.62 14.539 14.3 14.539h14.9c8.68 0 16.05-1.689 20.64-10.81l15.25-32.89h11.66c3.16 0 5.65-2.22 5.65-5.36 0-3.138-2.561-5.689-5.721-5.689zm-74.48-3.76c-3.63 2.09-4.88 6.71-2.78 10.33l6.12 10.55h36.19a7.545 7.545 0 0 0 1.99-9.81l-11.4-19.64c-2.1-3.61-6.75-4.85-10.38-2.77l-19.74 11.34z"></path></g><!----><g data-v-423bf9ae="" id="95b2c58e-e4ed-44cf-a269-27e7a6aa0607" fill="black" transform="matrix(1.940448212393509,0,0,1.940448212393509,106.37427405179398,55.24590299829037)"><path d="M1.12 7.70C1.12 6.38 1.53 5.29 2.34 4.41C3.15 3.53 4.18 3.09 5.42 3.09C6.66 3.09 7.69 3.53 8.50 4.41C9.31 5.29 9.72 6.38 9.72 7.70C9.72 9.02 9.31 10.11 8.50 10.99C7.69 11.87 6.66 12.31 5.42 12.31C4.18 12.31 3.15 11.87 2.34 10.99C1.53 10.11 1.12 9.02 1.12 7.70ZM0.70 7.70C0.70 9.16 1.15 10.36 2.04 11.30C2.93 12.24 4.06 12.71 5.42 12.71C6.78 12.71 7.91 12.24 8.80 11.30C9.69 10.36 10.14 9.16 10.14 7.70C10.14 6.24 9.69 5.04 8.80 4.10C7.91 3.16 6.78 2.69 5.42 2.69C4.06 2.69 2.93 3.16 2.04 4.10C1.15 5.04 0.70 6.24 0.70 7.70ZM26.03 2.80L26.03 11.79L18.54 2.45L18.54 12.60L18.96 12.60L18.96 3.61L26.45 12.95L26.45 2.80ZM35.41 2.80L35.41 12.60L39.89 12.60L39.89 12.19L35.83 12.19L35.83 2.80ZM48.36 2.80L48.36 12.60L48.78 12.60L48.78 2.80ZM65.16 2.80L65.16 11.79L57.67 2.45L57.67 12.60L58.09 12.60L58.09 3.61L65.58 12.95L65.58 2.80ZM74.96 7.48L79.30 7.48L79.30 7.08L74.96 7.08L74.96 3.21L79.58 3.21L79.58 2.80L74.54 2.80L74.54 12.60L79.58 12.60L79.58 12.19L74.96 12.19ZM99.83 9.74L99.46 9.90C100.08 11.77 101.13 12.71 102.61 12.71C103.52 12.71 104.21 12.45 104.68 11.93C105.14 11.41 105.38 10.77 105.38 10.01C105.38 9.66 105.32 9.35 105.20 9.06C105.09 8.78 104.96 8.55 104.81 8.37C104.67 8.19 104.46 8.02 104.20 7.86C103.94 7.70 103.73 7.58 103.56 7.50C103.40 7.43 103.18 7.34 102.90 7.22C102.86 7.21 102.75 7.16 102.55 7.08C102.35 7.01 102.23 6.96 102.19 6.94C102.14 6.91 102.03 6.87 101.86 6.80C101.70 6.73 101.59 6.67 101.53 6.64C101.48 6.60 101.39 6.54 101.26 6.45C101.13 6.37 101.04 6.30 101.00 6.24C100.95 6.18 100.88 6.10 100.80 6.00C100.72 5.90 100.66 5.80 100.63 5.70C100.59 5.61 100.56 5.50 100.53 5.38C100.51 5.25 100.49 5.12 100.49 4.98C100.49 4.41 100.69 3.95 101.09 3.62C101.48 3.29 101.98 3.12 102.56 3.12C103.69 3.12 104.48 3.77 104.92 5.07L105.32 4.90C105.12 4.23 104.78 3.69 104.31 3.29C103.85 2.89 103.27 2.69 102.58 2.69C101.89 2.69 101.29 2.90 100.78 3.33C100.27 3.76 100.02 4.33 100.02 5.04C100.02 5.39 100.09 5.71 100.23 5.99C100.38 6.27 100.59 6.51 100.88 6.71C101.16 6.91 101.42 7.07 101.65 7.17C101.88 7.28 102.17 7.41 102.54 7.55C102.82 7.65 103.01 7.72 103.11 7.77C103.21 7.82 103.39 7.90 103.63 8.02C103.87 8.13 104.05 8.24 104.15 8.34C104.26 8.45 104.39 8.58 104.53 8.75C104.68 8.92 104.78 9.11 104.83 9.32C104.89 9.54 104.92 9.78 104.92 10.05C104.92 10.72 104.73 11.27 104.35 11.68C103.97 12.09 103.40 12.29 102.65 12.29C101.42 12.29 100.48 11.44 99.83 9.74ZM113.43 3.21L115.95 3.21L115.95 12.60L116.37 12.60L116.37 3.21L118.89 3.21L118.89 2.80L113.43 2.80ZM126.73 7.70C126.73 6.38 127.13 5.29 127.95 4.41C128.76 3.53 129.78 3.09 131.03 3.09C132.27 3.09 133.29 3.53 134.11 4.41C134.92 5.29 135.32 6.38 135.32 7.70C135.32 9.02 134.92 10.11 134.11 10.99C133.29 11.87 132.27 12.31 131.03 12.31C129.78 12.31 128.76 11.87 127.95 10.99C127.13 10.11 126.73 9.02 126.73 7.70ZM126.31 7.70C126.31 9.16 126.75 10.36 127.64 11.30C128.54 12.24 129.66 12.71 131.03 12.71C132.39 12.71 133.52 12.24 134.41 11.30C135.30 10.36 135.74 9.16 135.74 7.70C135.74 6.24 135.30 5.04 134.41 4.10C133.52 3.16 132.39 2.69 131.03 2.69C129.66 2.69 128.54 3.16 127.64 4.10C126.75 5.04 126.31 6.24 126.31 7.70ZM145.12 2.80ZM144.70 2.80L144.70 12.60L145.12 12.60L145.12 8.48L146.68 8.48L149.80 12.60L150.35 12.60L147.15 8.47C148.05 8.41 148.77 8.15 149.30 7.67C149.84 7.20 150.11 6.52 150.11 5.64C150.11 4.71 149.80 4.00 149.20 3.52C148.59 3.04 147.79 2.80 146.80 2.80ZM145.12 3.21L146.80 3.21C147.67 3.21 148.37 3.41 148.89 3.83C149.41 4.24 149.67 4.85 149.67 5.64C149.67 6.44 149.41 7.04 148.89 7.45C148.37 7.87 147.67 8.08 146.80 8.08L145.12 8.08ZM159.17 7.48L163.51 7.48L163.51 7.08L159.17 7.08L159.17 3.21L163.79 3.21L163.79 2.80L158.75 2.80L158.75 12.60L163.79 12.60L163.79 12.19L159.17 12.19Z"></path></g></svg>