<svg data-v-423bf9ae="" xmlns="http://www.w3.org/2000/svg" viewBox="0 0 395.5846148164047 60" class="font"><!----><!----><!----><g data-v-423bf9ae="" id="d7288c40-a46f-4ded-9bdf-cf1746b13b79" fill="black" transform="matrix(5.612721889848748,0,0,5.612721889848748,-8.250704946278404,-16.557529604270663)"><path d="M8.06 8.47L8.06 8.47Q8.92 8.71 9.41 9.33L9.41 9.33L9.41 9.33Q9.90 9.95 9.90 10.91L9.90 10.91L9.90 10.91Q9.90 12.18 8.94 12.87L8.94 12.87L8.94 12.87Q7.98 13.55 6.15 13.55L6.15 13.55L1.47 13.55L1.47 3.75L5.87 3.75L5.87 3.75Q7.55 3.75 8.46 4.42L8.46 4.42L8.46 4.42Q9.38 5.10 9.38 6.29L9.38 6.29L9.38 6.29Q9.38 7.06 9.02 7.62L9.02 7.62L9.02 7.62Q8.67 8.18 8.06 8.47L8.06 8.47ZM5.74 4.89L2.87 4.89L2.87 8.02L5.74 8.02L5.74 8.02Q6.82 8.02 7.40 7.62L7.40 7.62L7.40 7.62Q7.98 7.22 7.98 6.45L7.98 6.45L7.98 6.45Q7.98 5.68 7.40 5.29L7.40 5.29L7.40 5.29Q6.82 4.89 5.74 4.89L5.74 4.89ZM6.09 12.42L6.09 12.42Q7.28 12.42 7.88 12.03L7.88 12.03L7.88 12.03Q8.48 11.63 8.48 10.79L8.48 10.79L8.48 10.79Q8.48 9.16 6.09 9.16L6.09 9.16L2.87 9.16L2.87 12.42L6.09 12.42ZM13.16 7.38L13.16 7.38Q13.51 6.73 14.20 6.40L14.20 6.40L14.20 6.40Q14.88 6.06 15.86 6.06L15.86 6.06L15.86 7.36L15.86 7.36Q15.75 7.35 15.55 7.35L15.55 7.35L15.55 7.35Q14.46 7.35 13.84 8.00L13.84 8.00L13.84 8.00Q13.22 8.65 13.22 9.86L13.22 9.86L13.22 13.55L11.87 13.55L11.87 6.13L13.16 6.13L13.16 7.38ZM20.31 6.06L20.31 6.06Q21.85 6.06 22.67 6.82L22.67 6.82L22.67 6.82Q23.49 7.57 23.49 9.07L23.49 9.07L23.49 13.55L22.22 13.55L22.22 12.57L22.22 12.57Q21.88 13.09 21.26 13.36L21.26 13.36L21.26 13.36Q20.64 13.64 19.78 13.64L19.78 13.64L19.78 13.64Q18.54 13.64 17.79 13.03L17.79 13.03L17.79 13.03Q17.04 12.43 17.04 11.45L17.04 11.45L17.04 11.45Q17.04 10.47 17.75 9.88L17.75 9.88L17.75 9.88Q18.47 9.28 20.02 9.28L20.02 9.28L22.15 9.28L22.15 9.02L22.15 9.02Q22.15 8.15 21.64 7.69L21.64 7.69L21.64 7.69Q21.14 7.22 20.16 7.22L20.16 7.22L20.16 7.22Q19.50 7.22 18.87 7.44L18.87 7.44L18.87 7.44Q18.24 7.66 17.81 8.02L17.81 8.02L17.25 7.01L17.25 7.01Q17.82 6.55 18.62 6.31L18.62 6.31L18.62 6.31Q19.42 6.06 20.31 6.06L20.31 6.06ZM20.01 12.60L20.01 12.60Q20.78 12.60 21.34 12.26L21.34 12.26L21.34 12.26Q21.90 11.91 22.15 11.28L22.15 11.28L22.15 10.25L20.08 10.25L20.08 10.25Q18.37 10.25 18.37 11.40L18.37 11.40L18.37 11.40Q18.37 11.96 18.80 12.28L18.80 12.28L18.80 12.28Q19.24 12.60 20.01 12.60L20.01 12.60ZM29.95 6.06L29.95 6.06Q31.36 6.06 32.19 6.88L32.19 6.88L32.19 6.88Q33.03 7.70 33.03 9.28L33.03 9.28L33.03 13.55L31.68 13.55L31.68 9.44L31.68 9.44Q31.68 8.36 31.16 7.81L31.16 7.81L31.16 7.81Q30.65 7.27 29.68 7.27L29.68 7.27L29.68 7.27Q28.59 7.27 27.96 7.90L27.96 7.90L27.96 7.90Q27.33 8.54 27.33 9.73L27.33 9.73L27.33 13.55L25.98 13.55L25.98 6.13L27.27 6.13L27.27 7.25L27.27 7.25Q27.68 6.68 28.37 6.37L28.37 6.37L28.37 6.37Q29.06 6.06 29.95 6.06L29.95 6.06ZM41.17 3.16L42.52 3.16L42.52 13.55L41.23 13.55L41.23 12.38L41.23 12.38Q40.78 12.99 40.10 13.31L40.10 13.31L40.10 13.31Q39.41 13.64 38.58 13.64L38.58 13.64L38.58 13.64Q37.51 13.64 36.65 13.16L36.65 13.16L36.65 13.16Q35.80 12.68 35.31 11.82L35.31 11.82L35.31 11.82Q34.83 10.96 34.83 9.84L34.83 9.84L34.83 9.84Q34.83 8.72 35.31 7.87L35.31 7.87L35.31 7.87Q35.80 7.01 36.65 6.54L36.65 6.54L36.65 6.54Q37.51 6.06 38.58 6.06L38.58 6.06L38.58 6.06Q39.38 6.06 40.05 6.36L40.05 6.36L40.05 6.36Q40.73 6.66 41.17 7.25L41.17 7.25L41.17 3.16ZM38.70 12.46L38.70 12.46Q39.40 12.46 39.97 12.13L39.97 12.13L39.97 12.13Q40.54 11.80 40.87 11.21L40.87 11.21L40.87 11.21Q41.19 10.61 41.19 9.84L41.19 9.84L41.19 9.84Q41.19 9.07 40.87 8.48L40.87 8.48L40.87 8.48Q40.54 7.88 39.97 7.56L39.97 7.56L39.97 7.56Q39.40 7.24 38.70 7.24L38.70 7.24L38.70 7.24Q37.98 7.24 37.41 7.56L37.41 7.56L37.41 7.56Q36.85 7.88 36.52 8.48L36.52 8.48L36.52 8.48Q36.19 9.07 36.19 9.84L36.19 9.84L36.19 9.84Q36.19 10.61 36.52 11.21L36.52 11.21L36.52 11.21Q36.85 11.80 37.41 12.13L37.41 12.13L37.41 12.13Q37.98 12.46 38.70 12.46L38.70 12.46ZM45.07 13.55L45.07 6.13L46.41 6.13L46.41 13.55L45.07 13.55ZM45.74 4.70L45.74 4.70Q45.35 4.70 45.09 4.45L45.09 4.45L45.09 4.45Q44.83 4.20 44.83 3.84L44.83 3.84L44.83 3.84Q44.83 3.47 45.09 3.21L45.09 3.21L45.09 3.21Q45.35 2.95 45.74 2.95L45.74 2.95L45.74 2.95Q46.13 2.95 46.39 3.20L46.39 3.20L46.39 3.20Q46.65 3.44 46.65 3.81L46.65 3.81L46.65 3.81Q46.65 4.19 46.39 4.45L46.39 4.45L46.39 4.45Q46.13 4.70 45.74 4.70L45.74 4.70ZM51.10 13.64L51.10 13.64Q50.19 13.64 49.35 13.39L49.35 13.39L49.35 13.39Q48.51 13.15 48.03 12.77L48.03 12.77L48.59 11.70L48.59 11.70Q49.08 12.05 49.78 12.26L49.78 12.26L49.78 12.26Q50.48 12.47 51.20 12.47L51.20 12.47L51.20 12.47Q52.96 12.47 52.96 11.47L52.96 11.47L52.96 11.47Q52.96 11.13 52.72 10.93L52.72 10.93L52.72 10.93Q52.49 10.74 52.13 10.65L52.13 10.65L52.13 10.65Q51.77 10.56 51.11 10.44L51.11 10.44L51.11 10.44Q50.22 10.30 49.65 10.12L49.65 10.12L49.65 10.12Q49.08 9.94 48.68 9.51L48.68 9.51L48.68 9.51Q48.27 9.07 48.27 8.29L48.27 8.29L48.27 8.29Q48.27 7.28 49.11 6.67L49.11 6.67L49.11 6.67Q49.95 6.06 51.37 6.06L51.37 6.06L51.37 6.06Q52.11 6.06 52.85 6.24L52.85 6.24L52.85 6.24Q53.59 6.43 54.07 6.73L54.07 6.73L53.49 7.80L53.49 7.80Q52.58 7.21 51.35 7.21L51.35 7.21L51.35 7.21Q50.50 7.21 50.05 7.49L50.05 7.49L50.05 7.49Q49.60 7.77 49.60 8.23L49.60 8.23L49.60 8.23Q49.60 8.60 49.85 8.81L49.85 8.81L49.85 8.81Q50.11 9.02 50.48 9.11L50.48 9.11L50.48 9.11Q50.85 9.21 51.52 9.34L51.52 9.34L51.52 9.34Q52.42 9.49 52.97 9.67L52.97 9.67L52.97 9.67Q53.52 9.84 53.91 10.26L53.91 10.26L53.91 10.26Q54.31 10.68 54.31 11.44L54.31 11.44L54.31 11.44Q54.31 12.45 53.45 13.04L53.45 13.04L53.45 13.04Q52.58 13.64 51.10 13.64L51.10 13.64ZM59.74 12.15L60.16 13.12L60.16 13.12Q59.86 13.37 59.43 13.50L59.43 13.50L59.43 13.50Q59.00 13.64 58.53 13.64L58.53 13.64L58.53 13.64Q57.41 13.64 56.80 13.03L56.80 13.03L56.80 13.03Q56.18 12.43 56.18 11.31L56.18 11.31L56.18 7.24L54.92 7.24L54.92 6.13L56.18 6.13L56.18 4.51L57.53 4.51L57.53 6.13L59.65 6.13L59.65 7.24L57.53 7.24L57.53 11.26L57.53 11.26Q57.53 11.86 57.83 12.18L57.83 12.18L57.83 12.18Q58.13 12.50 58.69 12.50L58.69 12.50L58.69 12.50Q59.30 12.50 59.74 12.15L59.74 12.15ZM61.78 13.55L61.78 6.13L63.13 6.13L63.13 13.55L61.78 13.55ZM62.45 4.70L62.45 4.70Q62.06 4.70 61.80 4.45L61.80 4.45L61.80 4.45Q61.54 4.20 61.54 3.84L61.54 3.84L61.54 3.84Q61.54 3.47 61.80 3.21L61.80 3.21L61.80 3.21Q62.06 2.95 62.45 2.95L62.45 2.95L62.45 2.95Q62.85 2.95 63.11 3.20L63.11 3.20L63.11 3.20Q63.36 3.44 63.36 3.81L63.36 3.81L63.36 3.81Q63.36 4.19 63.11 4.45L63.11 4.45L63.11 4.45Q62.85 4.70 62.45 4.70L62.45 4.70ZM68.92 13.64L68.92 13.64Q67.79 13.64 66.90 13.15L66.90 13.15L66.90 13.15Q66.01 12.66 65.51 11.79L65.51 11.79L65.51 11.79Q65.00 10.93 65.00 9.84L65.00 9.84L65.00 9.84Q65.00 8.75 65.51 7.89L65.51 7.89L65.51 7.89Q66.01 7.03 66.90 6.54L66.90 6.54L66.90 6.54Q67.79 6.06 68.92 6.06L68.92 6.06L68.92 6.06Q69.93 6.06 70.72 6.47L70.72 6.47L70.72 6.47Q71.51 6.87 71.95 7.64L71.95 7.64L70.92 8.30L70.92 8.30Q70.57 7.77 70.06 7.50L70.06 7.50L70.06 7.50Q69.54 7.24 68.91 7.24L68.91 7.24L68.91 7.24Q68.18 7.24 67.60 7.56L67.60 7.56L67.60 7.56Q67.02 7.88 66.69 8.48L66.69 8.48L66.69 8.48Q66.36 9.07 66.36 9.84L66.36 9.84L66.36 9.84Q66.36 10.63 66.69 11.22L66.69 11.22L66.69 11.22Q67.02 11.82 67.60 12.14L67.60 12.14L67.60 12.14Q68.18 12.46 68.91 12.46L68.91 12.46L68.91 12.46Q69.54 12.46 70.06 12.19L70.06 12.19L70.06 12.19Q70.57 11.93 70.92 11.40L70.92 11.40L71.95 12.04L71.95 12.04Q71.51 12.81 70.72 13.22L70.72 13.22L70.72 13.22Q69.93 13.64 68.92 13.64L68.92 13.64Z"></path></g><!----><!----></svg>